<?xml version="1.0" standalone="no"?>
<!DOCTYPE svg PUBLIC "-//W3C//DTD SVG 20010904//EN"
 "http://www.w3.org/TR/2001/REC-SVG-20010904/DTD/svg10.dtd">
<svg version="1.0" xmlns="http://www.w3.org/2000/svg"
 width="200.000000pt" height="200.000000pt" viewBox="0 0 200.000000 200.000000"
 preserveAspectRatio="xMidYMid meet">

<g transform="translate(0.000000,200.000000) scale(0.100000,-0.100000)"
fill="#000000" stroke="none">
<path d="M700 1501 c-6 -12 -10 -101 -10 -220 0 -219 3 -231 59 -231 46 0 51
14 51 147 0 68 4 123 8 123 4 0 34 -27 67 -60 78 -78 91 -78 172 2 l63 62 0
-115 c0 -130 11 -159 59 -159 57 0 61 16 61 237 0 181 -2 201 -18 216 -37 34
-62 21 -159 -75 l-93 -93 -93 93 c-78 78 -97 92 -124 92 -22 0 -36 -6 -43 -19z
m75 -36 c0 -27 -3 -30 -30 -30 -21 0 -31 5 -33 18 -6 33 6 49 35 45 24 -3 28
-8 28 -33z m432 19 c9 -24 -10 -49 -37 -49 -31 0 -48 28 -31 49 17 21 60 21
68 0z m-327 -99 l64 -65 -27 -28 -28 -27 -44 47 c-40 41 -45 52 -45 92 0 25 4
46 8 46 4 0 37 -29 72 -65z m230 17 c0 -43 -4 -52 -45 -92 l-44 -43 -20 24
c-11 13 -20 28 -21 34 0 11 111 125 122 125 4 0 8 -22 8 -48z m-330 -4 c0 -16
-3 -19 -11 -11 -6 6 -8 16 -5 22 11 17 16 13 16 -11z m374 13 c3 -5 -1 -14 -9
-21 -13 -10 -15 -9 -15 9 0 21 14 28 24 12z m-373 -64 c3 -4 5 -49 5 -99 l-1
-91 -38 -1 -37 -1 0 129 0 130 32 -30 c18 -16 35 -33 39 -37z m429 -65 l0
-128 -40 4 -40 4 0 91 c0 89 1 92 32 124 18 18 36 33 40 33 4 0 8 -57 8 -128z
m-219 -8 c9 -11 10 -20 2 -32 -24 -39 -82 -15 -68 28 8 24 47 27 66 4z m-216
-169 c0 -27 -3 -30 -30 -30 -21 0 -31 5 -33 18 -6 33 6 49 35 45 24 -3 28 -8
28 -33z m425 20 c19 -23 3 -57 -27 -53 -34 4 -51 31 -34 52 17 20 45 21 61 1z"/>
<path d="M107 953 c-11 -10 -8 -161 3 -168 6 -3 7 1 4 9 -4 11 0 16 11 16 11
0 15 -5 11 -16 -3 -8 -2 -12 4 -9 6 3 9 25 9 48 -2 30 -3 34 -6 15 -2 -16 -11
-28 -19 -28 -10 0 -14 13 -14 48 0 36 4 49 15 49 8 0 12 -3 10 -7 -5 -8 4 -19
38 -50 19 -16 27 -20 25 -10 -2 8 4 15 12 15 8 0 14 -7 12 -15 -4 -15 33 14
70 55 17 19 17 19 18 -32 0 -46 -2 -53 -20 -53 -21 0 -28 -24 -10 -35 6 -3 7
1 4 9 -4 11 0 16 11 16 11 0 15 -5 11 -16 -3 -8 -2 -12 4 -9 13 8 13 162 0
170 -6 3 -7 -1 -4 -9 4 -11 0 -16 -11 -16 -11 0 -15 5 -11 16 3 8 2 12 -4 9
-13 -8 -13 -35 0 -35 6 0 -2 -14 -17 -31 -26 -28 -28 -29 -41 -12 -13 17 -14
17 -23 0 -10 -18 -12 -18 -30 -1 -10 9 -19 30 -19 45 0 15 -4 31 -10 34 -6 3
-7 -1 -4 -9 4 -11 0 -16 -11 -16 -11 0 -15 5 -11 15 6 16 3 19 -7 8z"/>
<path d="M422 950 c2 -10 -4 -14 -16 -13 -14 1 -10 -7 18 -36 29 -29 36 -45
37 -76 0 -22 3 -34 6 -27 2 6 12 12 20 12 10 0 13 -6 9 -16 -3 -8 -2 -12 4 -9
6 3 10 23 10 44 0 29 7 44 35 71 19 19 35 39 34 44 0 6 -3 5 -6 -1 -2 -7 -11
-13 -19 -13 -9 0 -13 -4 -10 -9 3 -4 -4 -17 -15 -27 -18 -16 -22 -17 -33 -4
-26 33 -77 74 -74 60z m76 -101 c0 -19 -4 -29 -14 -29 -11 0 -13 9 -11 34 3
23 0 33 -8 30 -16 -6 -49 32 -40 46 12 20 72 -46 73 -81z"/>
<path d="M519 933 l-24 -28 28 24 c15 14 27 26 27 28 0 8 -8 1 -31 -24z"/>
<path d="M1017 953 c-2 -5 -5 -30 -6 -58 -1 -27 -8 -56 -14 -65 -11 -13 -10
-13 6 -1 11 9 17 27 17 52 0 28 4 39 15 39 21 0 20 -78 -1 -110 l-16 -25 21
24 c17 19 21 36 20 90 -1 36 -3 58 -6 49 -2 -10 -11 -18 -20 -18 -9 0 -13 6
-9 15 5 15 0 21 -7 8z"/>
<path d="M1135 950 c-9 -14 14 -42 28 -33 5 3 7 1 3 -5 -3 -6 -3 -13 2 -16 13
-8 1 -76 -14 -76 -19 0 -28 -20 -15 -33 9 -9 11 -8 6 6 -8 20 20 25 28 5 3 -7
6 9 6 37 l1 49 51 -49 c32 -31 53 -45 56 -37 3 6 12 12 20 12 10 0 13 -6 9
-16 -3 -8 -2 -12 4 -9 16 10 12 29 -10 43 -25 15 -29 92 -6 92 11 0 16 -14 19
-47 3 -44 4 -43 5 14 1 34 -2 65 -8 68 -6 3 -7 -1 -4 -9 4 -10 1 -16 -9 -16
-8 0 -18 6 -20 13 -3 6 -6 -10 -6 -38 l-1 -49 -55 54 c-38 37 -55 49 -55 37 0
-9 -7 -17 -16 -17 -10 0 -14 6 -10 15 6 17 0 20 -9 5z m151 -136 c-16 -18
-106 71 -106 106 0 23 5 20 59 -35 43 -44 55 -62 47 -71z"/>
<path d="M1525 951 c4 -7 2 -18 -5 -26 -9 -10 -6 -15 10 -20 24 -8 46 7 36 24
-4 6 -16 16 -28 22 -15 8 -19 8 -13 0z m35 -32 c0 -5 -7 -9 -15 -9 -15 0 -20
12 -9 23 8 8 24 -1 24 -14z"/>
<path d="M1670 944 c0 -10 -6 -14 -15 -10 -8 3 -15 1 -15 -4 0 -6 9 -10 20
-10 13 0 20 7 20 20 0 11 -2 20 -5 20 -3 0 -5 -7 -5 -16z"/>
<path d="M1771 875 c0 -56 3 -85 8 -76 5 8 16 11 25 8 14 -6 16 4 16 68 0 40
-4 77 -10 80 -6 3 -7 -1 -4 -9 4 -10 1 -16 -9 -16 -9 0 -18 8 -20 18 -3 9 -5
-23 -6 -73z m36 -5 c0 -33 -4 -50 -12 -50 -8 0 -12 17 -12 50 0 33 4 50 12 50
8 0 12 -17 12 -50z"/>
<path d="M882 895 c1 -49 2 -52 5 -17 3 34 8 42 24 42 10 0 19 4 19 10 0 5 -7
7 -16 3 -9 -3 -20 0 -25 8 -5 9 -8 -8 -7 -46z"/>
<path d="M1419 933 c-13 -16 -12 -17 4 -4 16 13 21 21 13 21 -2 0 -10 -8 -17
-17z"/>
<path d="M650 928 c0 -4 9 -8 20 -8 11 0 20 4 20 8 0 4 -9 8 -20 8 -11 0 -20
-4 -20 -8z"/>
<path d="M1449 903 c-13 -16 -12 -17 4 -4 16 13 21 21 13 21 -2 0 -10 -8 -17
-17z"/>
<path d="M1668 877 c-3 -15 -2 -30 3 -32 12 -8 16 8 9 35 l-6 25 -6 -28z"/>
<path d="M920 853 c0 -6 8 -17 18 -24 16 -13 16 -13 2 6 -8 11 -16 22 -17 24
-2 2 -3 0 -3 -6z"/>
<path d="M1440 846 c0 -2 8 -10 18 -17 15 -13 16 -12 3 4 -13 16 -21 21 -21
13z"/>
<path d="M1521 831 c-10 -6 -10 -10 -1 -16 6 -4 9 -13 6 -21 -4 -11 -2 -12 14
-4 26 14 34 30 22 42 -7 7 -10 6 -9 -3 1 -8 -2 -14 -8 -14 -5 0 -9 6 -9 13 2
14 3 14 -15 3z"/>
<path d="M673 822 c-48 -7 -20 -17 37 -14 50 3 60 1 60 -12 0 -9 4 -16 10 -16
5 0 7 6 4 14 -3 8 2 16 13 18 22 6 -93 14 -124 10z"/>
<path d="M1410 816 c0 -2 8 -10 18 -17 15 -13 16 -12 3 4 -13 16 -21 21 -21
13z"/>
<path d="M1652 813 c9 -2 19 -12 21 -21 3 -12 5 -10 6 6 1 17 -4 22 -21 21
-16 -1 -18 -3 -6 -6z"/>
</g>
</svg>
